<svg width="181" height="32" viewBox="0 0 181 32" fill="none" xmlns="http://www.w3.org/2000/svg">
<g clip-path="url(#clip0)">
<path d="M32.1667 12.2751C31.9572 11.6271 31.3825 11.1669 30.7026 11.1056L21.4665 10.267L17.8143 1.71865C17.545 1.09217 16.9317 0.686646 16.2503 0.686646C15.5689 0.686646 14.9556 1.09217 14.6863 1.72012L11.0341 10.267L1.79654 11.1056C1.11782 11.1684 0.544559 11.6271 0.33386 12.2751C0.123162 12.923 0.317747 13.6338 0.831188 14.0818L7.81257 20.2045L5.75392 29.2728C5.60328 29.9396 5.86208 30.6288 6.41532 31.0287C6.71269 31.2436 7.0606 31.353 7.41144 31.353C7.71393 31.353 8.01399 31.2714 8.28328 31.1103L16.2503 26.3487L24.2144 31.1103C24.7971 31.4609 25.5318 31.4289 26.0838 31.0287C26.6373 30.6276 26.8958 29.9381 26.7452 29.2728L24.6865 20.2045L31.6679 14.083C32.1814 13.6338 32.3774 12.9243 32.1667 12.2751Z" fill="#FFC107"/>
</g>
<g clip-path="url(#clip1)">
<path d="M69.1667 12.2751C68.9572 11.6271 68.3825 11.1669 67.7026 11.1056L58.4665 10.267L54.8143 1.71865C54.545 1.09217 53.9317 0.686646 53.2503 0.686646C52.5689 0.686646 51.9556 1.09217 51.6863 1.72012L48.0341 10.267L38.7965 11.1056C38.1178 11.1684 37.5446 11.6271 37.3339 12.2751C37.1232 12.923 37.3177 13.6338 37.8312 14.0818L44.8126 20.2045L42.7539 29.2728C42.6033 29.9396 42.8621 30.6288 43.4153 31.0287C43.7127 31.2436 44.0606 31.353 44.4114 31.353C44.7139 31.353 45.014 31.2714 45.2833 31.1103L53.2503 26.3487L61.2144 31.1103C61.7971 31.4609 62.5318 31.4289 63.0838 31.0287C63.6373 30.6276 63.8958 29.9381 63.7452 29.2728L61.6865 20.2045L68.6679 14.083C69.1814 13.6338 69.3774 12.9243 69.1667 12.2751Z" fill="#FFC107"/>
</g>
<g clip-path="url(#clip2)">
<path d="M106.167 12.2751C105.957 11.6271 105.383 11.1669 104.703 11.1056L95.4665 10.267L91.8143 1.71865C91.545 1.09217 90.9317 0.686646 90.2503 0.686646C89.5689 0.686646 88.9556 1.09217 88.6863 1.72012L85.0341 10.267L75.7965 11.1056C75.1178 11.1684 74.5446 11.6271 74.3339 12.2751C74.1232 12.923 74.3177 13.6338 74.8312 14.0818L81.8126 20.2045L79.7539 29.2728C79.6033 29.9396 79.8621 30.6288 80.4153 31.0287C80.7127 31.2436 81.0606 31.353 81.4114 31.353C81.7139 31.353 82.014 31.2714 82.2833 31.1103L90.2503 26.3487L98.2144 31.1103C98.7971 31.4609 99.5318 31.4289 100.084 31.0287C100.637 30.6276 100.896 29.9381 100.745 29.2728L98.6865 20.2045L105.668 14.083C106.181 13.6338 106.377 12.9243 106.167 12.2751Z" fill="#FFC107"/>
</g>
<g clip-path="url(#clip3)">
<path d="M143.167 12.2751C142.957 11.6271 142.383 11.1669 141.703 11.1056L132.466 10.267L128.814 1.71865C128.545 1.09217 127.932 0.686646 127.25 0.686646C126.569 0.686646 125.956 1.09217 125.686 1.72012L122.034 10.267L112.797 11.1056C112.118 11.1684 111.545 11.6271 111.334 12.2751C111.123 12.923 111.318 13.6338 111.831 14.0818L118.813 20.2045L116.754 29.2728C116.603 29.9396 116.862 30.6288 117.415 31.0287C117.713 31.2436 118.061 31.353 118.411 31.353C118.714 31.353 119.014 31.2714 119.283 31.1103L127.25 26.3487L135.214 31.1103C135.797 31.4609 136.532 31.4289 137.084 31.0287C137.637 30.6276 137.896 29.9381 137.745 29.2728L135.687 20.2045L142.668 14.083C143.181 13.6338 143.377 12.9243 143.167 12.2751Z" fill="#FFC107"/>
</g>
<g clip-path="url(#clip4)">
<path d="M180.167 12.2751C179.957 11.6271 179.383 11.1669 178.703 11.1056L169.466 10.267L165.814 1.71865C165.545 1.09217 164.932 0.686646 164.25 0.686646C163.569 0.686646 162.956 1.09217 162.686 1.72012L159.034 10.267L149.797 11.1056C149.118 11.1684 148.545 11.6271 148.334 12.2751C148.123 12.923 148.318 13.6338 148.831 14.0818L155.813 20.2045L153.754 29.2728C153.603 29.9396 153.862 30.6288 154.415 31.0287C154.713 31.2436 155.061 31.353 155.411 31.353C155.714 31.353 156.014 31.2714 156.283 31.1103L164.25 26.3487L172.214 31.1103C172.797 31.4609 173.532 31.4289 174.084 31.0287C174.637 30.6276 174.896 29.9381 174.745 29.2728L172.687 20.2045L179.668 14.083C180.181 13.6338 180.377 12.9243 180.167 12.2751Z" fill="#FFC107"/>
</g>
<defs>
<clipPath id="clip0">
<rect width="32" height="32" fill="white" transform="translate(0.25)"/>
</clipPath>
<clipPath id="clip1">
<rect width="32" height="32" fill="white" transform="translate(37.25)"/>
</clipPath>
<clipPath id="clip2">
<rect width="32" height="32" fill="white" transform="translate(74.25)"/>
</clipPath>
<clipPath id="clip3">
<rect width="32" height="32" fill="white" transform="translate(111.25)"/>
</clipPath>
<clipPath id="clip4">
<rect width="32" height="32" fill="white" transform="translate(148.25)"/>
</clipPath>
</defs>
</svg>
